<?xml version="1.0" encoding="UTF-8"?>
<svg id="_ã‚" xmlns="http://www.w3.org/2000/svg" version="1.1" viewBox="0 0 102.72 33.73">
  <!-- Generator: Adobe Illustrator 29.8.2, SVG Export Plug-In . SVG Version: 2.1.1 Build 3)  -->
  <defs>
    <style>
      .st0 {
        fill: #040000;
      }

      .st1 {
        fill: #fff;
      }
    </style>
  </defs>
  <path d="M31.24,9.19h5.66v17.61h-5.66v-1.96c-1.2,1.67-2.83,2.51-4.88,2.51-1.16,0-2.23-.24-3.2-.7-.98-.47-1.83-1.13-2.55-1.97-.73-.85-1.29-1.84-1.7-2.99-.4-1.14-.61-2.39-.61-3.74,0-1.26.2-2.45.59-3.59.39-1.13.94-2.12,1.65-2.97.7-.85,1.54-1.52,2.52-2.01.97-.49,2.05-.74,3.24-.74,1.99,0,3.64.77,4.95,2.3v-1.75h0ZM24.15,17.94c0,.57.09,1.1.28,1.6.19.49.44.92.76,1.29s.7.65,1.15.86c.45.21.93.31,1.45.31s.97-.1,1.42-.31.83-.49,1.15-.86.58-.79.78-1.27.3-1,.3-1.54-.1-1.07-.3-1.56c-.2-.49-.46-.92-.78-1.29s-.7-.65-1.15-.86-.92-.31-1.42-.31-1,.1-1.45.31-.83.49-1.15.86-.58.78-.76,1.25c-.19.47-.28.98-.28,1.53h0Z"/>
  <path d="M49.46,13.66c-1.01-.58-2-.87-2.96-.87-.5,0-.91.11-1.22.33s-.47.52-.47.9c0,.2.03.36.08.48s.16.24.33.35.42.21.76.3c.33.09.77.2,1.31.33,1.51.33,2.64.93,3.39,1.78s1.12,1.95,1.12,3.28c0,1-.18,1.9-.54,2.69s-.87,1.47-1.51,2.01c-.65.54-1.42.96-2.33,1.26s-1.9.45-2.99.45c-2.1,0-4.16-.65-6.2-1.96l2-4.26c1.53,1.15,2.98,1.73,4.35,1.73.5,0,.92-.12,1.24-.36s.48-.55.48-.93c0-.22-.03-.4-.08-.55-.05-.14-.16-.28-.32-.4-.16-.12-.4-.23-.71-.33s-.72-.2-1.22-.32c-1.69-.38-2.88-.94-3.55-1.68-.68-.74-1.01-1.77-1.01-3.08,0-.95.16-1.81.48-2.58.32-.76.79-1.41,1.39-1.95.6-.53,1.33-.94,2.19-1.23s1.81-.43,2.86-.43c1.71,0,3.38.37,4.99,1.1l-1.84,3.93h-.02Z"/>
  <path d="M80.61,1.78v24.9h-5.43V1.78h5.43Z"/>
  <path d="M59.1,1.85v15.06l6.13-5.55h8c-.98.84-1.96,1.68-2.95,2.53-1.78,1.53-3.56,3.05-5.34,4.58,2.92,2.76,5.85,5.52,8.77,8.28h-8.19l-6.42-6.27v6.27h-5.84V1.85h5.84,0Z"/>
  <polygon class="st1" points="71.11 13.18 66.81 13.18 66.81 13.19 66.02 13.87 70.33 13.87 70.32 13.87 71.11 13.18"/>
  <g>
    <path d="M89.52,23.26l-7.44-14.22h6.3l4.11,8.44,3.99-8.44h6.24l-12.36,24.69h-6.09l5.25-10.46h0Z"/>
    <polygon points="83.12 28.71 80.61 33.72 87.78 33.72 90.29 28.71 83.12 28.71"/>
  </g>
  <rect class="st0" y="1.34" width="16.98" height="5.09"/>
  <rect class="st0" x="5.28" y="6.05" width="6.18" height="15.25"/>
  <rect class="st0" width="2.84" height="6.44"/>
  <path class="st1" d="M13.46,2.75h3.52v.67h-4l.48-.67Z"/>
  <path class="st1" d="M15.22,4.33h1.76v.67h-2l.24-.67Z"/>
  <polygon points="15.01 21.3 10.91 21.3 9.39 21.3 5.28 21.3 7.26 26.31 11.36 26.31 12.87 26.31 16.98 26.31 15.01 21.3"/>
  <polygon class="st1" points="86.43 30.65 82.13 30.65 82.13 30.65 81.34 31.34 85.65 31.34 85.64 31.33 86.43 30.65"/>
  <rect x="5.3" y="21.26" width="6.16" height=".1"/>
</svg>